<svg width="22" height="22" viewBox="0 0 22 22" fill="none" xmlns="http://www.w3.org/2000/svg">
<path d="M0 9.28125C0 7.953 1.078 6.875 2.40625 6.875H4.46875C4.74225 6.875 5.00456 6.98365 5.19795 7.17705C5.39135 7.37044 5.5 7.63275 5.5 7.90625C5.5 8.17975 5.39135 8.44206 5.19795 8.63545C5.00456 8.82885 4.74225 8.9375 4.46875 8.9375H2.40625C2.31508 8.9375 2.22765 8.97372 2.16318 9.03818C2.09872 9.10265 2.0625 9.19008 2.0625 9.28125V19.5938C2.0625 19.7835 2.2165 19.9375 2.40625 19.9375H12.7188C12.8099 19.9375 12.8974 19.9013 12.9618 19.8368C13.0263 19.7724 13.0625 19.6849 13.0625 19.5938V17.5312C13.0625 17.2577 13.1712 16.9954 13.3645 16.802C13.5579 16.6087 13.8202 16.5 14.0938 16.5C14.3673 16.5 14.6296 16.6087 14.823 16.802C15.0163 16.9954 15.125 17.2577 15.125 17.5312V19.5938C15.125 20.2319 14.8715 20.844 14.4202 21.2952C13.969 21.7465 13.3569 22 12.7188 22H2.40625C1.76807 22 1.15603 21.7465 0.704774 21.2952C0.253515 20.844 0 20.2319 0 19.5938V9.28125Z" fill="white"/>
<path d="M6.875 2.40625C6.875 1.078 7.953 0 9.28125 0H19.5938C20.922 0 22 1.078 22 2.40625V12.7188C22 13.3569 21.7465 13.969 21.2952 14.4202C20.844 14.8715 20.2319 15.125 19.5938 15.125H9.28125C8.64307 15.125 8.03103 14.8715 7.57977 14.4202C7.12852 13.969 6.875 13.3569 6.875 12.7188V2.40625ZM9.28125 2.0625C9.19008 2.0625 9.10265 2.09872 9.03818 2.16318C8.97372 2.22765 8.9375 2.31508 8.9375 2.40625V12.7188C8.9375 12.9085 9.0915 13.0625 9.28125 13.0625H19.5938C19.6849 13.0625 19.7724 13.0263 19.8368 12.9618C19.9013 12.8974 19.9375 12.8099 19.9375 12.7188V2.40625C19.9375 2.31508 19.9013 2.22765 19.8368 2.16318C19.7724 2.09872 19.6849 2.0625 19.5938 2.0625H9.28125Z" fill="white"/>
</svg>
