<svg width="765" height="176" viewBox="0 0 765 176" fill="none" xmlns="http://www.w3.org/2000/svg">
<g opacity="0.18" clip-path="url(#clip0_1_25)">
<path d="M26.1946 71.3526C17.9818 79.8485 9.76897 88.2574 0.0864511 98.1407C0.0864511 81.3221 0.0864511 66.6714 0 52.107C0 49.8533 1.38322 48.8127 2.67998 47.5125C18.5005 32.6882 34.4075 17.8639 50.1413 2.95297C52.1297 1.04575 54.1181 0.178833 56.9711 0.178833C69.766 0.265525 82.5605 0.265525 96.2201 0.265525C83.0793 55.2279 69.8523 109.757 56.6252 164.546C59.6512 164.286 60.7749 161.946 62.4175 160.472C117.919 108.024 173.42 55.5746 228.836 3.12635C230.564 1.47921 232.121 0.178833 234.801 0.178833C258.488 0.265525 282.262 0.265525 307.506 0.265525C303.875 3.55981 301.281 5.98719 298.688 8.41454C276.384 28.7004 254.252 49.0727 231.775 69.1856C228.058 72.4799 227.279 74.7335 230.046 79.3285C248.46 110.884 266.615 142.613 284.683 174.082C283.473 176.597 281.571 175.729 280.187 175.643C260.649 175.209 241.025 176.857 221.487 174.429C205.753 172.522 193.045 166.193 185.956 150.936C183.017 144.607 178.521 139.059 175.668 132.73C172.902 126.662 170.741 127.616 166.591 131.517C152.327 144.954 137.63 157.958 123.279 171.308C119.994 174.342 116.795 175.816 112.213 175.816C75.6445 175.643 38.9894 175.729 1.38322 175.729C10.6334 141.053 17.0308 106.289 27.5779 72.5665C27.6643 72.0465 27.7507 71.4393 27.8372 70.9192C27.2321 71.0059 26.7133 71.1792 26.1946 71.3526Z" fill="#003357"/>
<path fill-rule="evenodd" clip-rule="evenodd" d="M366.378 0.264593H410.467C413.234 0.264593 416.087 0.264593 418.853 0.784744C436.057 3.99234 451.099 11.0143 455.766 29.4797C460.695 48.9852 454.383 65.89 439.516 79.3276L439.152 79.651C436.224 82.2593 435.184 83.186 439.258 86.4362C449.112 94.4984 449.804 105.942 447.383 117.298C440.724 148.594 419.545 165.152 389.979 172.608C381.593 174.775 373.034 175.642 364.389 175.642C344.333 175.555 324.276 175.468 304.219 175.729C299.292 175.815 296.525 174.168 294.537 169.833C292.894 166.279 291.079 162.638 288.658 159.517C278.889 147.38 278.717 134.81 282.78 119.899C292.052 86.0653 299.99 51.8087 307.924 17.5738C308.792 13.8264 309.66 10.0793 310.53 6.33301C311.741 1.04482 313.988 -0.0821735 318.916 0.00451795C331.221 0.341653 343.526 0.311685 355.831 0.281717C359.346 0.273155 362.862 0.264593 366.378 0.264593ZM357.819 133.943H375.282C375.769 133.943 376.256 133.921 376.731 133.898C377.184 133.877 377.627 133.856 378.048 133.856C382.803 133.683 387.299 132.73 391.535 130.475C397.673 127.181 401.909 118.859 400.266 112.79C398.364 105.855 392.313 104.641 386.434 104.295C378.74 103.774 371.046 103.861 363.352 104.034C360.831 104.088 358.095 103.784 355.367 103.48C349.298 102.804 343.269 102.132 339.751 105.422C336.259 108.682 335.367 114.716 334.475 120.744C334.086 123.372 333.698 126 333.094 128.395L333.057 128.582C332.982 128.972 332.897 129.409 332.748 129.782C331.106 133.423 332.835 134.116 336.12 134.116C341.927 133.909 347.679 133.922 353.464 133.936C354.913 133.94 356.365 133.943 357.819 133.943ZM377.184 41.183V41.7899C379.79 41.7899 382.408 41.7441 385.028 41.6984C389.623 41.6181 394.227 41.5376 398.797 41.7032C403.033 41.9633 407.615 43.0036 408.652 48.0317C409.69 53.2334 407.528 57.7412 403.465 61.0355C398.624 64.9365 392.832 65.7166 386.953 65.8033C380.87 65.9454 374.761 65.9322 368.654 65.9195C363.566 65.9089 358.479 65.8979 353.41 65.9767C349.433 66.0634 347.791 65.1099 349.26 60.8621C350.056 58.6221 350.429 56.067 350.798 53.5432C351.471 48.9364 352.128 44.433 355.312 42.1366C358.267 40.0202 362.988 40.4345 367.716 40.8494C369.766 41.0293 371.817 41.2093 373.726 41.183H377.184Z" fill="#003357"/>
<path d="M520.435 175.729C496.834 175.729 473.321 175.556 449.72 175.816C444.703 175.903 444.187 174.429 445.312 169.921C458.708 115.305 471.938 60.6025 484.992 5.81351C486.113 1.30554 487.842 0.0918579 492.426 0.0918579C533.056 0.265241 573.603 0.265241 614.233 0.0918579C619.683 0.0918579 620.979 1.13216 619.421 6.59372C616.829 15.7831 614.924 25.2324 613.112 34.5951C612.162 39.4499 610.345 41.3571 604.983 41.2704C581.903 40.9237 558.819 41.2704 535.739 41.0103C531.156 40.9237 528.993 42.3107 528.131 46.732C527.181 51.4998 526.143 56.3548 524.497 60.9493C522.768 65.6309 524.843 65.8909 528.564 65.8909C551.902 65.8042 575.244 66.0643 598.587 65.7175C604.899 65.6309 605.937 67.3644 604.295 73.1729C601.787 82.1889 599.624 91.2916 598.07 100.481C597.116 105.856 595.128 107.676 589.512 107.59C566.428 107.243 543.343 107.676 520.264 107.33C514.73 107.243 512.309 108.977 511.618 114.352C510.755 120.593 506.259 128.916 508.763 132.297C512.051 136.718 520.868 133.684 527.264 133.771C551.556 133.944 575.765 133.944 600.058 133.771C604.899 133.684 606.629 134.377 605.07 139.752C602.22 149.809 599.882 160.125 597.724 170.441C596.857 174.689 594.782 175.816 590.632 175.729C567.119 175.556 543.777 175.729 520.435 175.729Z" fill="#003357"/>
<path d="M639.996 175.729C647.259 145.908 654.259 116.606 661.351 87.3906C664.547 74.0401 667.489 60.5158 671.205 47.252C672.759 41.7039 671.03 41.0104 666.188 41.0971C653.396 41.3572 640.513 41.0971 627.721 41.2705C624.175 41.2705 622.791 40.9237 623.917 36.6758C626.683 26.0994 629.017 15.3497 631.262 4.59992C631.871 1.5657 632.908 0.26532 636.192 0.26532C686.593 0.352012 736.907 0.352012 788 0.352012C784.8 13.3557 781.517 25.9261 778.662 38.4963C777.883 42.0507 775.466 41.2705 773.304 41.2705C759.299 41.3572 745.295 41.4439 731.286 41.1838C726.619 41.0971 724.544 42.1374 723.336 47.252C713.823 87.6506 703.798 127.962 694.285 168.447C692.902 174.342 690.568 176.163 684.606 175.989C669.909 175.383 655.213 175.729 639.996 175.729Z" fill="#003357"/>
<path d="M99.2438 0.43855C121.635 0.43855 143.247 -0.168291 164.774 0.698626C176.272 1.13208 185.781 7.54726 193.303 16.5632C195.204 18.8172 195.983 20.2909 193.216 22.805C175.753 38.9296 158.549 55.2275 140.567 72.1328C126.735 48.2055 113.162 24.6255 99.2438 0.43855Z" fill="#003357"/>
<path d="M26.194 71.3535C26.7133 71.1792 27.2327 71.0054 27.7521 70.8312C27.6655 71.3535 27.579 71.9624 27.4924 72.4843C27.0596 72.1362 26.6268 71.7015 26.194 71.3535Z" fill="#003357"/>
</g>
<defs>
<clipPath id="clip0_1_25">
<rect width="788" height="176" fill="white"/>
</clipPath>
</defs>
</svg>
