<svg width="80" height="45" viewBox="0 0 80 45" fill="none" xmlns="http://www.w3.org/2000/svg">
<path d="M6.7481 18.2436C4.63237 20.4159 2.51663 22.5659 0.022271 25.0928C0.022271 20.7926 0.022271 17.0467 0 13.3229C0 12.7466 0.356336 12.4806 0.690401 12.1481C4.76599 8.35784 8.86385 4.56753 12.9171 0.755072C13.4294 0.267431 13.9416 0.0457764 14.6766 0.0457764C17.9727 0.0679419 21.2688 0.0679419 24.7877 0.0679419C21.4024 14.1208 17.9949 28.0629 14.5875 42.0716C15.367 42.0051 15.6565 41.4066 16.0796 41.0298C30.3776 27.6197 44.6756 14.2095 58.9513 0.799403C59.3967 0.378258 59.7976 0.0457764 60.488 0.0457764C66.5902 0.0679419 72.7148 0.0679419 79.2179 0.0679419C78.2826 0.91023 77.6143 1.53087 76.9463 2.1515C71.2003 7.33822 65.499 12.5471 59.7085 17.6895C58.7509 18.5318 58.5504 19.1081 59.2631 20.2829C64.0068 28.3511 68.6837 36.4637 73.3384 44.5098C73.0265 45.1526 72.5366 44.9309 72.1803 44.9087C67.147 44.7979 62.0915 45.2191 57.0582 44.5984C53.005 44.1107 49.7311 42.4926 47.9048 38.5916C47.1477 36.9735 45.9895 35.5549 45.2547 33.9368C44.5419 32.3852 43.9852 32.6291 42.9162 33.6265C39.2415 37.0622 35.4554 40.387 31.7584 43.8005C30.9122 44.5763 30.0881 44.953 28.9078 44.953C19.4871 44.9087 10.0442 44.9309 0.356336 44.9309C2.73933 36.0647 4.38738 27.1763 7.10445 18.554C7.12671 18.421 7.14898 18.2658 7.17126 18.1328C7.01536 18.155 6.88173 18.1993 6.7481 18.2436Z" fill="#027BCF"/>
<path d="M25.5667 0.112123C31.3349 0.112123 36.9026 -0.0430353 42.4481 0.17862C45.4101 0.289447 47.8599 1.92969 49.7975 4.2349C50.2874 4.81121 50.4879 5.18802 49.7752 5.83082C45.2765 9.9536 40.8445 14.1207 36.2122 18.443C32.6489 12.3253 29.1523 6.2963 25.5667 0.112123Z" fill="#027BCF"/>
</svg>
