<svg width="203" height="45" viewBox="0 0 203 45" fill="none" xmlns="http://www.w3.org/2000/svg">
<g clip-path="url(#clip0_1_244)">
<path d="M6.7481 18.2436C4.63237 20.4159 2.51662 22.5659 0.022271 25.0928C0.022271 20.7926 0.022271 17.0467 0 13.3229C0 12.7466 0.356336 12.4806 0.690401 12.1481C4.76599 8.35784 8.86385 4.56753 12.9171 0.755072C13.4294 0.267431 13.9416 0.0457764 14.6766 0.0457764C17.9727 0.0679419 21.2688 0.0679419 24.7877 0.0679419C21.4024 14.1208 17.9949 28.0629 14.5875 42.0716C15.367 42.0051 15.6565 41.4066 16.0796 41.0298C30.3776 27.6197 44.6756 14.2095 58.9513 0.799403C59.3967 0.378258 59.7976 0.0457764 60.488 0.0457764C66.5902 0.0679419 72.7148 0.0679419 79.2179 0.0679419C78.2826 0.91023 77.6143 1.53087 76.9463 2.1515C71.2003 7.33822 65.499 12.5471 59.7085 17.6895C58.7509 18.5318 58.5504 19.1081 59.2631 20.2829C64.0068 28.3511 68.6837 36.4637 73.3384 44.5098C73.0265 45.1526 72.5366 44.9309 72.1803 44.9087C67.147 44.7979 62.0915 45.2191 57.0582 44.5984C53.005 44.1107 49.7311 42.4926 47.9048 38.5916C47.1477 36.9735 45.9895 35.5549 45.2547 33.9368C44.5419 32.3852 43.9853 32.6291 42.9162 33.6265C39.2415 37.0622 35.4554 40.387 31.7584 43.8005C30.9122 44.5763 30.0881 44.953 28.9078 44.953C19.4871 44.9087 10.0442 44.9309 0.356336 44.9309C2.73933 36.0647 4.38738 27.1763 7.10445 18.554C7.12671 18.421 7.14898 18.2658 7.17126 18.1328C7.01536 18.155 6.88173 18.1993 6.7481 18.2436Z" fill="white"/>
<path fill-rule="evenodd" clip-rule="evenodd" d="M94.3841 0.0676517H105.742C106.455 0.0676517 107.19 0.0676517 107.903 0.200645C112.334 1.02077 116.21 2.81617 117.412 7.53742C118.682 12.5246 117.055 16.8469 113.226 20.2826L113.132 20.3653C112.378 21.0322 112.109 21.2691 113.159 22.1002C115.698 24.1615 115.876 27.0874 115.252 29.991C113.537 37.9928 108.081 42.2264 100.464 44.1326C98.3038 44.6868 96.0989 44.9084 93.8718 44.9084C88.705 44.8863 83.5381 44.8641 78.3712 44.9306C77.1018 44.9528 76.3891 44.5317 75.8769 43.4233C75.4537 42.5145 74.9861 41.5836 74.3625 40.7856C71.8459 37.6824 71.8013 34.4685 72.848 30.656C75.2368 22.0053 77.2818 13.2465 79.3255 4.4933C79.5491 3.53516 79.7729 2.57708 79.997 1.61924C80.3088 0.267141 80.8878 -0.0210103 82.1572 0.00115516C85.3272 0.0873543 88.497 0.0796922 91.667 0.07203C92.5727 0.0698408 93.4783 0.0676517 94.3841 0.0676517ZM92.1792 34.2468H96.6779C96.8034 34.2468 96.9288 34.2411 97.0511 34.2353C97.1679 34.2299 97.282 34.2246 97.3906 34.2246C98.6156 34.1803 99.7736 33.9365 100.865 33.3602C102.446 32.5179 103.537 30.3901 103.114 28.8385C102.624 27.0653 101.065 26.7549 99.551 26.6662C97.5688 26.5332 95.5867 26.5554 93.6045 26.5997C92.9553 26.6135 92.2503 26.5356 91.5475 26.4579C89.984 26.2851 88.4311 26.1134 87.5246 26.9544C86.6251 27.788 86.3952 29.3308 86.1655 30.8721C86.0653 31.5441 85.9653 32.2158 85.8098 32.8283L85.8003 32.876C85.7808 32.9759 85.7589 33.0876 85.7207 33.1829C85.2975 34.1138 85.7429 34.2911 86.5892 34.2911C88.0853 34.238 89.5671 34.2415 91.0574 34.2451C91.4307 34.2459 91.8046 34.2468 92.1792 34.2468ZM97.168 10.5298V10.6849C97.8393 10.6849 98.5136 10.6732 99.1887 10.6615C100.372 10.641 101.559 10.6204 102.736 10.6628C103.827 10.7292 105.007 10.9952 105.275 12.2808C105.542 13.6108 104.985 14.7634 103.938 15.6057C102.691 16.6031 101.199 16.8026 99.6846 16.8247C98.1174 16.8611 96.5437 16.8577 94.9705 16.8544C93.6597 16.8517 92.3492 16.8489 91.0435 16.869C90.019 16.8912 89.5958 16.6474 89.9744 15.5613C90.1794 14.9886 90.2756 14.3353 90.3705 13.69C90.5439 12.5121 90.7132 11.3607 91.5334 10.7736C92.2946 10.2325 93.5108 10.3384 94.7288 10.4444C95.257 10.4904 95.7853 10.5365 96.2771 10.5298H97.168Z" fill="#027BCF"/>
<path d="M134.071 44.9308C127.991 44.9308 121.934 44.8864 115.854 44.9529C114.562 44.9751 114.429 44.5982 114.719 43.4457C118.17 29.4814 121.578 15.4949 124.941 1.48636C125.23 0.333754 125.675 0.0234375 126.856 0.0234375C137.323 0.0677685 147.768 0.0677685 158.235 0.0234375C159.639 0.0234375 159.973 0.289423 159.572 1.68585C158.904 4.0354 158.413 6.45142 157.946 8.8453C157.702 10.0866 157.234 10.5742 155.852 10.552C149.906 10.4634 143.96 10.552 138.014 10.4855C136.833 10.4634 136.276 10.818 136.054 11.9485C135.809 13.1675 135.542 14.4088 135.118 15.5836C134.672 16.7806 135.207 16.8471 136.166 16.8471C142.178 16.8249 148.191 16.8914 154.204 16.8027C155.831 16.7806 156.098 17.2238 155.675 18.7089C155.029 21.0142 154.472 23.3416 154.071 25.6911C153.826 27.0653 153.313 27.5308 151.867 27.5087C145.92 27.42 139.973 27.5308 134.027 27.4422C132.602 27.42 131.978 27.8633 131.8 29.2376C131.578 30.8335 130.42 32.9613 131.065 33.8258C131.912 34.9563 134.183 34.1805 135.831 34.2027C142.089 34.247 148.325 34.247 154.583 34.2027C155.831 34.1805 156.276 34.3578 155.875 35.7321C155.14 38.3033 154.538 40.941 153.982 43.5786C153.759 44.6647 153.224 44.9529 152.155 44.9308C146.098 44.8864 140.085 44.9308 134.071 44.9308Z" fill="#027BCF"/>
<path d="M164.872 44.9308C166.743 37.3059 168.547 29.814 170.374 22.3442C171.197 18.9307 171.955 15.4728 172.912 12.0815C173.312 10.663 172.867 10.4857 171.62 10.5078C168.324 10.5743 165.005 10.5078 161.71 10.5521C160.796 10.5521 160.44 10.4635 160.73 9.37738C161.443 6.67318 162.044 3.92466 162.622 1.17615C162.779 0.400354 163.046 0.0678711 163.892 0.0678711C176.876 0.0900366 189.838 0.0900366 203 0.0900366C202.176 3.41486 201.33 6.62886 200.595 9.84285C200.394 10.7516 199.771 10.5521 199.214 10.5521C195.606 10.5743 191.999 10.5965 188.39 10.53C187.188 10.5078 186.653 10.7738 186.342 12.0815C183.891 22.4107 181.308 32.7176 178.858 43.069C178.501 44.5761 177.9 45.0417 176.364 44.9973C172.578 44.8422 168.792 44.9308 164.872 44.9308Z" fill="#027BCF"/>
<path d="M25.5667 0.112123C31.3349 0.112123 36.9026 -0.0430353 42.4481 0.17862C45.4101 0.289447 47.8599 1.92969 49.7975 4.2349C50.2874 4.81121 50.4879 5.18802 49.7752 5.83082C45.2765 9.9536 40.8445 14.1207 36.2122 18.443C32.6489 12.3253 29.1523 6.2963 25.5667 0.112123Z" fill="white"/>
<path d="M6.74805 18.2438C6.88185 18.1992 7.01565 18.1548 7.14943 18.1102C7.12714 18.2438 7.10484 18.3995 7.08253 18.5329C6.97104 18.4439 6.85954 18.3328 6.74805 18.2438Z" fill="white"/>
</g>
<defs>
<clipPath id="clip0_1_244">
<rect width="203" height="45" fill="white"/>
</clipPath>
</defs>
</svg>
