<svg width="144" height="32" viewBox="0 0 144 32" fill="none" xmlns="http://www.w3.org/2000/svg">
<g clip-path="url(#clip0_1_259)">
<path d="M4.78683 12.9732C3.28602 14.5179 1.78519 16.0468 0.0157982 17.8437C0.0157982 14.7858 0.0157982 12.122 0 9.47395C0 9.06419 0.25277 8.87499 0.489742 8.63859C3.3808 5.94327 6.28766 3.24794 9.16288 0.536858C9.52624 0.190092 9.8896 0.0324707 10.411 0.0324707C12.7491 0.0482329 15.0872 0.0482329 17.5834 0.0482329C15.182 10.0414 12.7649 19.9558 10.3478 29.9175C10.9007 29.8702 11.1061 29.4446 11.4062 29.1767C21.5486 19.6406 31.691 10.1044 41.8177 0.568383C42.1336 0.268902 42.418 0.0324707 42.9078 0.0324707C47.2364 0.0482329 51.581 0.0482329 56.194 0.0482329C55.5305 0.647194 55.0565 1.08854 54.5826 1.52987C50.5066 5.21821 46.4623 8.92227 42.3548 12.5792C41.6755 13.1781 41.5333 13.5879 42.0389 14.4233C45.4038 20.1607 48.7214 25.9296 52.0233 31.6513C51.8021 32.1084 51.4546 31.9508 51.2018 31.935C47.6314 31.8562 44.0452 32.1557 40.4748 31.7144C37.5996 31.3676 35.2772 30.2169 33.9818 27.4428C33.4446 26.2922 32.6231 25.2834 32.1018 24.1328C31.5962 23.0294 31.2014 23.2028 30.443 23.9121C27.8363 26.3552 25.1506 28.7196 22.5282 31.1469C21.9278 31.6986 21.3433 31.9665 20.506 31.9665C13.8234 31.935 7.12496 31.9508 0.25277 31.9508C1.94317 25.646 3.11223 19.3253 5.03961 13.1939C5.0554 13.0993 5.0712 12.9889 5.087 12.8944C4.97642 12.9101 4.88162 12.9416 4.78683 12.9732Z" fill="white"/>
<path fill-rule="evenodd" clip-rule="evenodd" d="M66.9523 0.0481078H75.0093C75.5148 0.0481078 76.0362 0.0481078 76.5417 0.142681C79.6856 0.725879 82.4344 2.00261 83.2872 5.35994C84.188 8.9064 83.0344 11.98 80.3176 14.4232L80.2512 14.482C79.7161 14.9562 79.5259 15.1247 80.2704 15.7157C82.0712 17.1815 82.1976 19.2622 81.7552 21.327C80.5384 27.0171 76.6681 30.0277 71.2652 31.3832C69.7327 31.7773 68.1688 31.9349 66.5889 31.9349C62.9238 31.9191 59.2586 31.9034 55.5934 31.9506C54.6929 31.9664 54.1874 31.667 53.824 30.8788C53.5239 30.2326 53.1921 29.5706 52.7498 29.0031C50.9646 26.7964 50.933 24.511 51.6755 21.7998C53.37 15.6482 54.8206 9.41976 56.2703 3.19523C56.429 2.51389 56.5877 1.83259 56.7467 1.15146C56.9679 0.189967 57.3786 -0.0149406 58.2791 0.000821445C60.5277 0.0621186 62.7763 0.05667 65.0249 0.0512214C65.6674 0.0496646 66.3098 0.0481078 66.9523 0.0481078ZM65.3883 24.3533H68.5795C68.6684 24.3533 68.7574 24.3492 68.8442 24.3451C68.927 24.3413 69.008 24.3375 69.085 24.3375C69.954 24.306 70.7754 24.1326 71.5495 23.7228C72.6712 23.1238 73.4453 21.6107 73.1451 20.5074C72.7975 19.2464 71.6917 19.0257 70.6175 18.9626C69.2114 18.8681 67.8054 18.8838 66.3993 18.9154C65.9388 18.9251 65.4387 18.8698 64.9401 18.8145C63.8311 18.6916 62.7295 18.5695 62.0864 19.1676C61.4484 19.7603 61.2853 20.8574 61.1224 21.9535C61.0513 22.4314 60.9804 22.909 60.87 23.3446L60.8633 23.3785C60.8495 23.4495 60.834 23.529 60.8068 23.5967C60.5067 24.2587 60.8226 24.3848 61.4229 24.3848C62.4842 24.347 63.5353 24.3495 64.5925 24.3521C64.8573 24.3526 65.1225 24.3533 65.3883 24.3533ZM68.9271 7.48782V7.59816C69.4033 7.59816 69.8816 7.58984 70.3605 7.58152C71.2002 7.56692 72.0416 7.55229 72.8766 7.5824C73.6507 7.62969 74.488 7.81883 74.6776 8.73304C74.8672 9.6788 74.4722 10.4984 73.7297 11.0974C72.845 11.8066 71.7865 11.9485 70.7123 11.9642C69.6006 11.9901 68.4843 11.9877 67.3683 11.9854C66.4384 11.9834 65.5088 11.9814 64.5826 11.9958C63.8559 12.0115 63.5557 11.8382 63.8243 11.0658C63.9696 10.6586 64.0379 10.194 64.1052 9.73512C64.2282 8.89752 64.3483 8.07872 64.9301 7.66121C65.4701 7.27641 66.3328 7.35173 67.1968 7.42716C67.5715 7.45986 67.9463 7.49259 68.2951 7.48782H68.9271Z" fill="white"/>
<path d="M95.1048 31.9508C90.792 31.9508 86.4952 31.9193 82.1824 31.9666C81.2656 31.9823 81.1712 31.7143 81.3768 30.8947C83.8248 20.9646 86.2424 11.0187 88.628 1.05702C88.8328 0.237393 89.1488 0.0167236 89.9864 0.0167236C97.4112 0.0482479 104.821 0.0482479 112.246 0.0167236C113.242 0.0167236 113.478 0.205869 113.194 1.19888C112.72 2.86967 112.372 4.58774 112.041 6.29005C111.867 7.17273 111.535 7.5195 110.555 7.50374C106.338 7.44069 102.119 7.50374 97.9016 7.45645C97.064 7.44069 96.6688 7.69288 96.5112 8.49675C96.3376 9.36362 96.148 10.2463 95.8472 11.0817C95.5312 11.9329 95.9104 11.9802 96.5904 11.9802C100.855 11.9644 105.121 12.0117 109.386 11.9487C110.54 11.9329 110.73 12.2481 110.43 13.3042C109.971 14.9435 109.576 16.5985 109.292 18.2693C109.118 19.2465 108.754 19.5775 107.728 19.5618C103.51 19.4987 99.2912 19.5775 95.0736 19.5145C94.0624 19.4987 93.62 19.8139 93.4936 20.7912C93.336 21.9261 92.5144 23.4392 92.972 24.0539C93.5728 24.8579 95.184 24.3062 96.3528 24.3219C100.792 24.3535 105.216 24.3535 109.655 24.3219C110.54 24.3062 110.856 24.4323 110.571 25.4095C110.05 27.2379 109.623 29.1136 109.229 30.9893C109.07 31.7616 108.691 31.9666 107.933 31.9508C103.636 31.9193 99.3704 31.9508 95.1048 31.9508Z" fill="white"/>
<path d="M116.954 31.9508C118.281 26.5286 119.56 21.201 120.856 15.8892C121.44 13.4618 121.978 11.0029 122.657 8.59126C122.941 7.58251 122.625 7.45642 121.74 7.47218C119.402 7.51946 117.048 7.47218 114.71 7.5037C114.062 7.5037 113.81 7.44066 114.015 6.66831C114.521 4.74533 114.947 2.79082 115.358 0.836328C115.469 0.28465 115.658 0.0482178 116.258 0.0482178C125.469 0.0639799 134.663 0.0639799 144 0.0639799C143.415 2.4283 142.815 4.71381 142.294 6.99931C142.151 7.64556 141.71 7.5037 141.314 7.5037C138.755 7.51946 136.196 7.53522 133.636 7.48794C132.783 7.47218 132.404 7.66133 132.183 8.59126C130.445 15.9365 128.613 23.2658 126.874 30.6268C126.622 31.6985 126.195 32.0296 125.106 31.9981C122.42 31.8877 119.734 31.9508 116.954 31.9508Z" fill="white"/>
<path d="M18.136 0.0797808C22.2277 0.0797808 26.1773 -0.030554 30.111 0.127067C32.2121 0.205878 33.9499 1.37227 35.3244 3.01154C35.6719 3.42135 35.8141 3.6893 35.3085 4.14641C32.1173 7.07816 28.9735 10.0414 25.6875 13.1151C23.1598 8.76469 20.6795 4.47742 18.136 0.0797808Z" fill="white"/>
<path d="M4.78662 12.9734C4.88153 12.9417 4.97645 12.9101 5.07135 12.8784C5.05553 12.9734 5.03972 13.0841 5.02389 13.179C4.94481 13.1157 4.86571 13.0367 4.78662 12.9734Z" fill="white"/>
</g>
<defs>
<clipPath id="clip0_1_259">
<rect width="144" height="32" fill="white"/>
</clipPath>
</defs>
</svg>
